<mxfile host="Electron" modified="2023-09-16T12:17:09.778Z" agent="Mozilla/5.0 (Windows NT 10.0; Win64; x64) AppleWebKit/537.36 (KHTML, like Gecko) draw.io/21.6.8 Chrome/114.0.5735.289 Electron/25.5.0 Safari/537.36" etag="YAc0hDC2Csdv4bewQdMF" version="21.6.8" type="device">
  <diagram name="Page-1" id="XJx31KslLcZOQSzt-3BY">
    <mxGraphModel dx="2600" dy="1680" grid="1" gridSize="10" guides="1" tooltips="1" connect="1" arrows="1" fold="1" page="1" pageScale="1" pageWidth="850" pageHeight="1100" math="0" shadow="0">
      <root>
        <mxCell id="0" />
        <mxCell id="1" parent="0" />
        <mxCell id="qmaH527FHQ4qSMuzf6Vc-73" value="" style="rounded=0;whiteSpace=wrap;html=1;align=right;fontSize=18;labelPosition=left;verticalLabelPosition=top;verticalAlign=bottom;horizontal=1;dashed=1;dashPattern=8 8;fillStyle=dots;strokeColor=default;fillColor=none;" vertex="1" parent="1">
          <mxGeometry x="660" y="20" width="250" height="690" as="geometry" />
        </mxCell>
        <mxCell id="qmaH527FHQ4qSMuzf6Vc-133" value="" style="rounded=0;whiteSpace=wrap;html=1;fillColor=default;strokeColor=default;" vertex="1" parent="1">
          <mxGeometry x="960" y="230" width="140" height="170" as="geometry" />
        </mxCell>
        <mxCell id="qmaH527FHQ4qSMuzf6Vc-26" value="" style="rounded=0;whiteSpace=wrap;html=1;" vertex="1" parent="1">
          <mxGeometry x="710" y="140" width="140" height="360" as="geometry" />
        </mxCell>
        <mxCell id="qmaH527FHQ4qSMuzf6Vc-9" value="" style="endArrow=classic;html=1;rounded=0;exitX=1;exitY=0.5;exitDx=0;exitDy=0;entryX=0;entryY=0.5;entryDx=0;entryDy=0;" edge="1" parent="1">
          <mxGeometry width="50" height="50" relative="1" as="geometry">
            <mxPoint x="415" y="320" as="sourcePoint" />
            <mxPoint x="510" y="320" as="targetPoint" />
          </mxGeometry>
        </mxCell>
        <mxCell id="qmaH527FHQ4qSMuzf6Vc-147" style="edgeStyle=orthogonalEdgeStyle;rounded=0;orthogonalLoop=1;jettySize=auto;html=1;entryX=0.022;entryY=0.652;entryDx=0;entryDy=0;entryPerimeter=0;" edge="1" parent="1" source="qmaH527FHQ4qSMuzf6Vc-22" target="qmaH527FHQ4qSMuzf6Vc-160">
          <mxGeometry relative="1" as="geometry">
            <mxPoint x="823.0250000000001" y="612.6500000000001" as="targetPoint" />
            <Array as="points">
              <mxPoint x="810" y="613" />
            </Array>
          </mxGeometry>
        </mxCell>
        <mxCell id="qmaH527FHQ4qSMuzf6Vc-22" value="FailedNotification&lt;br style=&quot;border-color: var(--border-color);&quot;&gt;ScheduledJob" style="rounded=0;whiteSpace=wrap;html=1;fillColor=default;strokeColor=default;" vertex="1" parent="1">
          <mxGeometry x="680" y="600" width="120" height="60" as="geometry" />
        </mxCell>
        <mxCell id="qmaH527FHQ4qSMuzf6Vc-29" value="" style="endArrow=classic;html=1;rounded=0;exitX=0;exitY=0.5;exitDx=0;exitDy=0;entryX=0.5;entryY=1;entryDx=0;entryDy=0;" edge="1" parent="1" source="qmaH527FHQ4qSMuzf6Vc-22" target="qmaH527FHQ4qSMuzf6Vc-154">
          <mxGeometry width="50" height="50" relative="1" as="geometry">
            <mxPoint x="480" y="420" as="sourcePoint" />
            <mxPoint x="570" y="350" as="targetPoint" />
            <Array as="points">
              <mxPoint x="570" y="630" />
            </Array>
          </mxGeometry>
        </mxCell>
        <mxCell id="qmaH527FHQ4qSMuzf6Vc-30" value="" style="endArrow=classic;html=1;rounded=0;exitX=1;exitY=0.5;exitDx=0;exitDy=0;entryX=0;entryY=0.5;entryDx=0;entryDy=0;" edge="1" parent="1" target="qmaH527FHQ4qSMuzf6Vc-26">
          <mxGeometry width="50" height="50" relative="1" as="geometry">
            <mxPoint x="630" y="320" as="sourcePoint" />
            <mxPoint x="530" y="370" as="targetPoint" />
          </mxGeometry>
        </mxCell>
        <mxCell id="qmaH527FHQ4qSMuzf6Vc-33" value="" style="endArrow=classic;html=1;rounded=0;exitX=1;exitY=0.5;exitDx=0;exitDy=0;" edge="1" parent="1" source="qmaH527FHQ4qSMuzf6Vc-26">
          <mxGeometry width="50" height="50" relative="1" as="geometry">
            <mxPoint x="790" y="420" as="sourcePoint" />
            <mxPoint x="960" y="320" as="targetPoint" />
          </mxGeometry>
        </mxCell>
        <mxCell id="qmaH527FHQ4qSMuzf6Vc-43" value="" style="endArrow=classic;html=1;rounded=0;exitX=0.5;exitY=1;exitDx=0;exitDy=0;entryX=0.377;entryY=-0.003;entryDx=0;entryDy=0;entryPerimeter=0;" edge="1" parent="1" source="qmaH527FHQ4qSMuzf6Vc-26">
          <mxGeometry width="50" height="50" relative="1" as="geometry">
            <mxPoint x="790" y="520" as="sourcePoint" />
            <mxPoint x="850.7750000000001" y="559.73" as="targetPoint" />
            <Array as="points">
              <mxPoint x="780" y="540" />
              <mxPoint x="850" y="540" />
            </Array>
          </mxGeometry>
        </mxCell>
        <mxCell id="qmaH527FHQ4qSMuzf6Vc-74" value="NotificationMicroservice" style="text;html=1;strokeColor=none;fillColor=none;align=center;verticalAlign=middle;whiteSpace=wrap;rounded=0;fontSize=18;" vertex="1" parent="1">
          <mxGeometry x="715" y="30" width="140" height="30" as="geometry" />
        </mxCell>
        <mxCell id="qmaH527FHQ4qSMuzf6Vc-127" value="" style="edgeStyle=orthogonalEdgeStyle;rounded=0;orthogonalLoop=1;jettySize=auto;html=1;" edge="1" parent="1" target="qmaH527FHQ4qSMuzf6Vc-126">
          <mxGeometry relative="1" as="geometry">
            <mxPoint x="1100" y="320" as="sourcePoint" />
          </mxGeometry>
        </mxCell>
        <mxCell id="qmaH527FHQ4qSMuzf6Vc-126" value="" style="rounded=0;whiteSpace=wrap;html=1;" vertex="1" parent="1">
          <mxGeometry x="1161.32" y="135" width="130" height="370" as="geometry" />
        </mxCell>
        <mxCell id="qmaH527FHQ4qSMuzf6Vc-128" value="" style="dashed=0;outlineConnect=0;html=1;align=center;labelPosition=center;verticalLabelPosition=bottom;verticalAlign=top;shape=mxgraph.weblogos.sms;fillColor=#48B921;strokeColor=none" vertex="1" parent="1">
          <mxGeometry x="1191.72" y="155" width="69.2" height="64" as="geometry" />
        </mxCell>
        <mxCell id="qmaH527FHQ4qSMuzf6Vc-129" value="" style="sketch=0;outlineConnect=0;fontColor=#232F3E;gradientColor=none;fillColor=#232F3D;strokeColor=none;dashed=0;verticalLabelPosition=bottom;verticalAlign=top;align=center;html=1;fontSize=12;fontStyle=0;aspect=fixed;pointerEvents=1;shape=mxgraph.aws4.mobile_client;" vertex="1" parent="1">
          <mxGeometry x="1205.82" y="415" width="41" height="78" as="geometry" />
        </mxCell>
        <mxCell id="qmaH527FHQ4qSMuzf6Vc-130" value="" style="html=1;verticalLabelPosition=bottom;align=center;labelBackgroundColor=#ffffff;verticalAlign=top;strokeWidth=2;strokeColor=#0080F0;shadow=0;dashed=0;shape=mxgraph.ios7.icons.mail;" vertex="1" parent="1">
          <mxGeometry x="1196.32" y="295" width="60" height="50" as="geometry" />
        </mxCell>
        <mxCell id="qmaH527FHQ4qSMuzf6Vc-132" value="Serverless Functions Cloud Service" style="text;html=1;strokeColor=none;fillColor=none;align=center;verticalAlign=middle;whiteSpace=wrap;rounded=0;" vertex="1" parent="1">
          <mxGeometry x="737.5" y="160" width="85" height="30" as="geometry" />
        </mxCell>
        <mxCell id="qmaH527FHQ4qSMuzf6Vc-148" value="Notification Cloud Service" style="text;html=1;strokeColor=none;fillColor=none;align=center;verticalAlign=middle;whiteSpace=wrap;rounded=0;" vertex="1" parent="1">
          <mxGeometry x="987.5" y="258" width="85" height="30" as="geometry" />
        </mxCell>
        <mxCell id="qmaH527FHQ4qSMuzf6Vc-151" value="" style="rounded=0;whiteSpace=wrap;html=1;fillColor=#FFFFFF;strokeColor=default;" vertex="1" parent="1">
          <mxGeometry x="330" y="160" width="80" height="320" as="geometry" />
        </mxCell>
        <mxCell id="qmaH527FHQ4qSMuzf6Vc-152" value="" style="image;aspect=fixed;html=1;points=[];align=center;fontSize=12;image=img/lib/azure2/integration/Event_Grid_Subscriptions.svg;" vertex="1" parent="1">
          <mxGeometry x="342.08" y="340" width="50.25" height="45" as="geometry" />
        </mxCell>
        <mxCell id="qmaH527FHQ4qSMuzf6Vc-153" value="Event Streaming Cloud Service" style="text;html=1;strokeColor=none;fillColor=none;align=center;verticalAlign=middle;whiteSpace=wrap;rounded=0;" vertex="1" parent="1">
          <mxGeometry x="337.91999999999996" y="210" width="60" height="30" as="geometry" />
        </mxCell>
        <mxCell id="qmaH527FHQ4qSMuzf6Vc-154" value="" style="rounded=0;whiteSpace=wrap;html=1;fillColor=#FFFFFF;strokeColor=default;" vertex="1" parent="1">
          <mxGeometry x="510" y="240" width="120" height="160" as="geometry" />
        </mxCell>
        <mxCell id="qmaH527FHQ4qSMuzf6Vc-155" value="" style="sketch=0;outlineConnect=0;fontColor=#232F3E;gradientColor=none;fillColor=#B0084D;strokeColor=none;dashed=0;verticalLabelPosition=bottom;verticalAlign=top;align=center;html=1;fontSize=12;fontStyle=0;aspect=fixed;pointerEvents=1;shape=mxgraph.aws4.queue;" vertex="1" parent="1">
          <mxGeometry x="532" y="330" width="78" height="47" as="geometry" />
        </mxCell>
        <mxCell id="qmaH527FHQ4qSMuzf6Vc-156" value="Messaging Queue Cloud Service" style="text;html=1;strokeColor=none;fillColor=none;align=center;verticalAlign=middle;whiteSpace=wrap;rounded=0;" vertex="1" parent="1">
          <mxGeometry x="529" y="270" width="80" height="30" as="geometry" />
        </mxCell>
        <mxCell id="qmaH527FHQ4qSMuzf6Vc-157" value="" style="outlineConnect=0;dashed=0;verticalLabelPosition=bottom;verticalAlign=top;align=center;html=1;shape=mxgraph.aws3.lambda_function;fillColor=#F58534;gradientColor=none;" vertex="1" parent="1">
          <mxGeometry x="744.5" y="258" width="69" height="72" as="geometry" />
        </mxCell>
        <mxCell id="qmaH527FHQ4qSMuzf6Vc-158" value="" style="image;aspect=fixed;html=1;points=[];align=center;fontSize=12;image=img/lib/azure2/compute/Function_Apps.svg;" vertex="1" parent="1">
          <mxGeometry x="745.5" y="390" width="68" height="60" as="geometry" />
        </mxCell>
        <mxCell id="qmaH527FHQ4qSMuzf6Vc-159" value="" style="sketch=0;points=[[0,0,0],[0.25,0,0],[0.5,0,0],[0.75,0,0],[1,0,0],[0,1,0],[0.25,1,0],[0.5,1,0],[0.75,1,0],[1,1,0],[0,0.25,0],[0,0.5,0],[0,0.75,0],[1,0.25,0],[1,0.5,0],[1,0.75,0]];outlineConnect=0;fontColor=#232F3E;gradientColor=#FF4F8B;gradientDirection=north;fillColor=#BC1356;strokeColor=#ffffff;dashed=0;verticalLabelPosition=bottom;verticalAlign=top;align=center;html=1;fontSize=12;fontStyle=0;aspect=fixed;shape=mxgraph.aws4.resourceIcon;resIcon=mxgraph.aws4.sns;" vertex="1" parent="1">
          <mxGeometry x="1004.5" y="309" width="68" height="68" as="geometry" />
        </mxCell>
        <mxCell id="qmaH527FHQ4qSMuzf6Vc-160" value="" style="image;aspect=fixed;perimeter=ellipsePerimeter;html=1;align=center;shadow=0;dashed=0;spacingTop=3;image=img/lib/active_directory/databases.svg;" vertex="1" parent="1">
          <mxGeometry x="813.5" y="560" width="81.64" height="80" as="geometry" />
        </mxCell>
        <mxCell id="qmaH527FHQ4qSMuzf6Vc-161" value="&#xa;&lt;span style=&quot;color: rgb(51, 51, 51); font-family: Helvetica; font-size: 12px; font-style: normal; font-variant-ligatures: normal; font-variant-caps: normal; font-weight: 400; letter-spacing: normal; orphans: 2; text-align: center; text-indent: 0px; text-transform: none; widows: 2; word-spacing: 0px; -webkit-text-stroke-width: 0px; background-color: rgb(251, 251, 251); text-decoration-thickness: initial; text-decoration-style: initial; text-decoration-color: initial; float: none; display: inline !important;&quot;&gt;Relational&lt;/span&gt;&lt;br style=&quot;border-color: var(--border-color); color: rgb(51, 51, 51); font-family: Helvetica; font-size: 12px; font-style: normal; font-variant-ligatures: normal; font-variant-caps: normal; font-weight: 400; letter-spacing: normal; orphans: 2; text-align: center; text-indent: 0px; text-transform: none; widows: 2; word-spacing: 0px; -webkit-text-stroke-width: 0px; background-color: rgb(251, 251, 251); text-decoration-thickness: initial; text-decoration-style: initial; text-decoration-color: initial;&quot;&gt;&lt;span style=&quot;color: rgb(51, 51, 51); font-family: Helvetica; font-size: 12px; font-style: normal; font-variant-ligatures: normal; font-variant-caps: normal; font-weight: 400; letter-spacing: normal; orphans: 2; text-align: center; text-indent: 0px; text-transform: none; widows: 2; word-spacing: 0px; -webkit-text-stroke-width: 0px; background-color: rgb(251, 251, 251); text-decoration-thickness: initial; text-decoration-style: initial; text-decoration-color: initial; float: none; display: inline !important;&quot;&gt;DB&lt;/span&gt;&lt;br style=&quot;border-color: var(--border-color); color: rgb(51, 51, 51); font-family: Helvetica; font-size: 12px; font-style: normal; font-variant-ligatures: normal; font-variant-caps: normal; font-weight: 400; letter-spacing: normal; orphans: 2; text-align: center; text-indent: 0px; text-transform: none; widows: 2; word-spacing: 0px; -webkit-text-stroke-width: 0px; background-color: rgb(251, 251, 251); text-decoration-thickness: initial; text-decoration-style: initial; text-decoration-color: initial;&quot;&gt;&lt;span style=&quot;color: rgb(51, 51, 51); font-family: Helvetica; font-size: 12px; font-style: normal; font-variant-ligatures: normal; font-variant-caps: normal; font-weight: 400; letter-spacing: normal; orphans: 2; text-align: center; text-indent: 0px; text-transform: none; widows: 2; word-spacing: 0px; -webkit-text-stroke-width: 0px; background-color: rgb(251, 251, 251); text-decoration-thickness: initial; text-decoration-style: initial; text-decoration-color: initial; float: none; display: inline !important;&quot;&gt;Service on Cloud&lt;/span&gt;&#xa;&#xa;" style="text;html=1;strokeColor=none;fillColor=none;align=center;verticalAlign=middle;whiteSpace=wrap;rounded=0;" vertex="1" parent="1">
          <mxGeometry x="804.3199999999999" y="650" width="100" height="30" as="geometry" />
        </mxCell>
      </root>
    </mxGraphModel>
  </diagram>
</mxfile>
